<?xml version="1.0" encoding="UTF-8"?>
<svg version="1.1" xmlns="http://www.w3.org/2000/svg" width="128" height="128">
<path d="M0 0 C42.24 0 84.48 0 128 0 C128 42.24 128 84.48 128 128 C85.76 128 43.52 128 0 128 C0 85.76 0 43.52 0 0 Z " fill="#7E0000" transform="translate(0,0)"/>
<path d="M0 0 C1.65 0 3.3 0 5 0 C7.43425238 4.96993194 8.34615998 8.34605369 8 14 C8.99 14 9.98 14 11 14 C11 15.32 11 16.64 11 18 C11.99 18 12.98 18 14 18 C15.22425539 19.45587127 16.44177386 20.91895975 17.59765625 22.4296875 C19.11260155 24.29108133 19.11260155 24.29108133 22.25 25.875 C23.1575 26.57625 24.065 27.2775 25 28 C25.15275391 29.83498047 25.15275391 29.83498047 25.30859375 31.70703125 C25.78997307 36.80942113 28.27229295 39.31408997 31.8125 42.8125 C32.61397461 43.65071289 32.61397461 43.65071289 33.43164062 44.50585938 C35.64921428 46.79435174 37.78607139 48.84492819 40.37109375 50.71875 C40.90863281 51.1415625 41.44617188 51.564375 42 52 C42.25 54.6875 42.25 54.6875 42 57 C38.535 57.495 38.535 57.495 35 58 C35.33 73.18 35.66 88.36 36 104 C30.06 104.33 24.12 104.66 18 105 C17.67 105.33 17.34 105.66 17 106 C13.61169191 106.25292226 10.20912276 106.18523407 6.8125 106.1875 C5.86568359 106.19974609 4.91886719 106.21199219 3.94335938 106.22460938 C-1.10927685 106.23518712 -5.26906371 106.01164182 -10 104 C-10 103.34 -10 102.68 -10 102 C-10.8971875 101.9071875 -10.8971875 101.9071875 -11.8125 101.8125 C-14 101 -14 101 -15.75 98.9375 C-17.40740878 95.04258936 -17.21413087 92.21124039 -17 88 C-16.01 88.66 -15.02 89.32 -14 90 C-14 90.66 -14 91.32 -14 92 C-13.38125 92.28875 -12.7625 92.5775 -12.125 92.875 C-10 94 -10 94 -8 96 C-8 84.78 -8 73.56 -8 62 C-8.66 62 -9.32 62 -10 62 C-10 61.34 -10 60.68 -10 60 C-11.98 59.67 -13.96 59.34 -16 59 C-16.33 62.3 -16.66 65.6 -17 69 C-17.66 69 -18.32 69 -19 69 C-19 64.05 -19 59.1 -19 54 C-20.32 53.67 -21.64 53.34 -23 53 C-25.3125 51.1875 -25.3125 51.1875 -27 49 C-26.75 46.75 -26.75 46.75 -26 45 C-25.34 45 -24.68 45 -24 45 C-23.9175 44.41734375 -23.835 43.8346875 -23.75 43.234375 C-22.77930418 40.34251038 -21.29451704 39.2331183 -19 37.25 C-16.1356325 34.52203096 -14.55595232 33.01158524 -14.4375 29 C-14.42203125 28.34902344 -14.4065625 27.69804688 -14.390625 27.02734375 C-13.58530182 22.84771646 -10.18836291 19.64706734 -7 17 C-4.76953125 16.27734375 -4.76953125 16.27734375 -3 16 C-2.95101562 15.34773438 -2.90203125 14.69546875 -2.8515625 14.0234375 C-2.42757771 9.06720147 -1.84334427 4.66980549 0 0 Z " fill="#262C34" transform="translate(59,8)"/>
<path d="M0 0 C6.125625 0.0309375 6.125625 0.0309375 12.375 0.0625 C12.375 9.6325 12.375 19.2025 12.375 29.0625 C13.365 29.0625 14.355 29.0625 15.375 29.0625 C15.375 30.7125 15.375 32.3625 15.375 34.0625 C3.02834846 34.69869857 -9.26106932 35.18866256 -21.625 35.0625 C-21.625 25.4925 -21.625 15.9225 -21.625 6.0625 C-22.285 6.0625 -22.945 6.0625 -23.625 6.0625 C-23.625 4.4125 -23.625 2.7625 -23.625 1.0625 C-15.73378467 0.06228451 -7.94605264 -0.05712584 0 0 Z " fill="#A4AA25" transform="translate(77.625,70.9375)"/>
<path d="M0 0 C13.05346047 -0.10612569 25.96299066 0.30469284 39 1 C39 10.9 39 20.8 39 31 C38.67 31 38.34 31 38 31 C38 21.43 38 11.86 38 2 C26.12 2.33 14.24 2.66 2 3 C2 4.65 2 6.3 2 8 C2.66 8 3.32 8 4 8 C4 17.57 4 27.14 4 37 C6.02125 36.835 8.0425 36.67 10.125 36.5 C20.40283598 35.74363271 30.70163837 35.90826456 41 36 C41 36.66 41 37.32 41 38 C41.66 38 42.32 38 43 38 C43 39.65 43 41.3 43 43 C41.06833984 43.09087891 41.06833984 43.09087891 39.09765625 43.18359375 C37.41925841 43.26798247 35.74087364 43.3526313 34.0625 43.4375 C33.21236328 43.47681641 32.36222656 43.51613281 31.48632812 43.55664062 C30.67744141 43.59853516 29.86855469 43.64042969 29.03515625 43.68359375 C28.2862915 43.72025146 27.53742676 43.75690918 26.76586914 43.79467773 C24.97538674 43.81771063 24.97538674 43.81771063 24 45 C20.61169191 45.25292226 17.20912276 45.18523407 13.8125 45.1875 C12.86568359 45.19974609 11.91886719 45.21199219 10.94335938 45.22460938 C5.89072315 45.23518712 1.73093629 45.01164182 -3 43 C-3 42.34 -3 41.68 -3 41 C-3.8971875 40.9071875 -3.8971875 40.9071875 -4.8125 40.8125 C-7 40 -7 40 -8.75 37.9375 C-10.40740878 34.04258936 -10.21413087 31.21124039 -10 27 C-8.515 27.99 -8.515 27.99 -7 29 C-7 29.66 -7 30.32 -7 31 C-6.071875 31.433125 -6.071875 31.433125 -5.125 31.875 C-3 33 -3 33 -1 35 C-0.67 23.45 -0.34 11.9 0 0 Z " fill="#292D35" transform="translate(52,69)"/>
<path d="M0 0 C2.31 0.66 4.62 1.32 7 2 C7 2.66 7 3.32 7 4 C7.66 4 8.32 4 9 4 C10.40044041 15.628657 10.09657994 27.30936996 10 39 C8.89031779 38.25818505 7.78749544 37.50610453 6.6875 36.75 C6.07261719 36.33234375 5.45773438 35.9146875 4.82421875 35.484375 C1.53241318 32.805818 0.118 31.11148388 -0.34057617 26.79199219 C-0.32486572 25.55610352 -0.30915527 24.32021484 -0.29296875 23.046875 C-0.28872391 22.38665344 -0.28447906 21.72643188 -0.28010559 21.04620361 C-0.26337435 18.94704609 -0.22573551 16.84886504 -0.1875 14.75 C-0.17244584 13.32293058 -0.15875871 11.89584604 -0.14648438 10.46875 C-0.11349001 6.97885183 -0.06174743 3.4895213 0 0 Z " fill="#90871A" transform="translate(42,66)"/>
<path d="M0 0 C12.70704518 -0.14988651 25.30838046 0.32759632 38 1 C38 10.9 38 20.8 38 31 C37.67 31 37.34 31 37 31 C37 21.43 37 11.86 37 2 C25.12 2.33 13.24 2.66 1 3 C1 4.65 1 6.3 1 8 C1.66 8 2.32 8 3 8 C3 17.57 3 27.14 3 37 C10.92 36.505 10.92 36.505 19 36 C19 36.66 19 37.32 19 38 C13.39 38 7.78 38 2 38 C1.67 28.76 1.34 19.52 1 10 C0.67 10 0.34 10 0 10 C0 6.7 0 3.4 0 0 Z " fill="#555B2F" transform="translate(53,69)"/>
<path d="M0 0 C0.66 0 1.32 0 2 0 C2.33 10.89 2.66 21.78 3 33 C3.66 33 4.32 33 5 33 C5 34.32 5 35.64 5 37 C-1.93 37 -8.86 37 -16 37 C-16 37.66 -16 38.32 -16 39 C-24.91 39 -33.82 39 -43 39 C-43.33 37.68 -43.66 36.36 -44 35 C-43.23300781 35.16242188 -42.46601562 35.32484375 -41.67578125 35.4921875 C-36.82947352 36.16170929 -32.07321484 36.14495527 -27.1875 36.125 C-26.22134766 36.12886719 -25.25519531 36.13273437 -24.25976562 36.13671875 C-22.88401367 36.13478516 -22.88401367 36.13478516 -21.48046875 36.1328125 C-20.64410889 36.13168457 -19.80774902 36.13055664 -18.94604492 36.12939453 C-16.99466705 36.21421245 -16.99466705 36.21421245 -16 35 C-14.65732587 34.91368126 -13.31025678 34.89293527 -11.96484375 34.90234375 C-11.15595703 34.90556641 -10.34707031 34.90878906 -9.51367188 34.91210938 C-8.66353516 34.92048828 -7.81339844 34.92886719 -6.9375 34.9375 C-6.08349609 34.94201172 -5.22949219 34.94652344 -4.34960938 34.95117188 C-2.23304337 34.96299627 -0.11651315 34.98093231 2 35 C1.84152588 34.32042236 1.68305176 33.64084473 1.51977539 32.94067383 C0.92631519 29.58312185 0.78512058 26.35761939 0.68359375 22.94921875 C0.66281265 22.29041214 0.64203156 21.63160553 0.62062073 20.95283508 C0.55564511 18.86448815 0.49648425 16.77602388 0.4375 14.6875 C0.39426521 13.2649622 0.3506494 11.84243594 0.30664062 10.41992188 C0.20001784 6.94673703 0.09860652 3.47342274 0 0 Z " fill="#5C1014" transform="translate(93,77)"/>
<path d="M0 0 C0.33 0 0.66 0 1 0 C1.67192387 10.0188648 2.15723924 19.95415947 2 30 C0.35 29.67 -1.3 29.34 -3 29 C-3 28.34 -3 27.68 -3 27 C-3.8971875 26.9071875 -3.8971875 26.9071875 -4.8125 26.8125 C-7 26 -7 26 -8.75 23.9375 C-10.40740878 20.04258936 -10.21413087 17.21124039 -10 13 C-8.515 13.99 -8.515 13.99 -7 15 C-7 15.66 -7 16.32 -7 17 C-6.071875 17.433125 -6.071875 17.433125 -5.125 17.875 C-3 19 -3 19 -1 21 C-0.67 14.07 -0.34 7.14 0 0 Z " fill="#2F312A" transform="translate(52,83)"/>
<path d="M0 0 C1.65 0 3.3 0 5 0 C3.68 0.33 2.36 0.66 1 1 C1.020625 1.804375 1.04125 2.60875 1.0625 3.4375 C1 6 1 6 0 7 C-0.10546754 8.58201311 -0.18438364 10.16583354 -0.25 11.75 C-0.59689776 15.61543217 -0.79767308 16.74845842 -3.3125 19.875 C-4.199375 20.57625 -5.08625 21.2775 -6 22 C-8.29215045 23.79191032 -8.29215045 23.79191032 -10 26 C-10.04125 27.051875 -10.0825 28.10375 -10.125 29.1875 C-11.16778835 33.7310778 -12.36425409 34.46798062 -15.875 37.375 C-20.76608333 41.43459916 -22.85213809 44.77505654 -24 51 C-24.66 51 -25.32 51 -26 51 C-27.125 47.25 -27.125 47.25 -26 45 C-25.34 45 -24.68 45 -24 45 C-23.9175 44.41734375 -23.835 43.8346875 -23.75 43.234375 C-22.77930418 40.34251038 -21.29451704 39.2331183 -19 37.25 C-16.1356325 34.52203096 -14.55595232 33.01158524 -14.4375 29 C-14.42203125 28.34902344 -14.4065625 27.69804688 -14.390625 27.02734375 C-13.58530182 22.84771646 -10.18836291 19.64706734 -7 17 C-4.76953125 16.27734375 -4.76953125 16.27734375 -3 16 C-2.95101562 15.34773438 -2.90203125 14.69546875 -2.8515625 14.0234375 C-2.42757771 9.06720147 -1.84334427 4.66980549 0 0 Z " fill="#4C1417" transform="translate(59,8)"/>
<path d="M0 0 C0.66 0.33 1.32 0.66 2 1 C2 14.53 2 28.06 2 42 C1.67 42 1.34 42 1 42 C1 39.69 1 37.38 1 35 C0.34 35 -0.32 35 -1 35 C-1.0246519 30.17619198 -1.04283693 25.35242033 -1.05493164 20.52856445 C-1.05997174 18.88630536 -1.06680378 17.24405077 -1.07543945 15.60180664 C-1.08751926 13.24624521 -1.09323139 10.89074291 -1.09765625 8.53515625 C-1.10281754 7.79660904 -1.10797882 7.05806183 -1.11329651 6.2971344 C-1.1134925 4.53101912 -1.06194719 2.76502854 -1 1 C-0.67 0.67 -0.34 0.34 0 0 Z " fill="#442224" transform="translate(92,65)"/>
<path d="M0 0 C1.87939453 -0.34057617 1.87939453 -0.34057617 4.1328125 -0.29296875 C4.93847656 -0.28330078 5.74414062 -0.27363281 6.57421875 -0.26367188 C7.41597656 -0.23853516 8.25773437 -0.21339844 9.125 -0.1875 C9.97449219 -0.17396484 10.82398437 -0.16042969 11.69921875 -0.14648438 C13.79974837 -0.11108219 15.89995293 -0.05727401 18 0 C18 0.99 18 1.98 18 3 C11.4 3 4.8 3 -2 3 C-1.34 2.01 -0.68 1.02 0 0 Z " fill="#252D36" transform="translate(72,67)"/>
<path d="M0 0 C0.680625 0.680625 1.36125 1.36125 2.0625 2.0625 C2.51367188 2.51238281 2.96484375 2.96226563 3.4296875 3.42578125 C4.56501192 4.56392986 5.69449869 5.70791175 6.8203125 6.85546875 C7.43648438 7.48066406 8.05265625 8.10585938 8.6875 8.75 C9.26886719 9.34296875 9.85023437 9.9359375 10.44921875 10.546875 C11.95513974 12.09641804 11.95513974 12.09641804 14 13 C14 14.65 14 16.3 14 18 C11.69 18 9.38 18 7 18 C7 17.34 7 16.68 7 16 C8.65 16 10.3 16 12 16 C7.2227763 10.41327819 7.2227763 10.41327819 2.0625 5.1875 C0 3 0 3 0 0 Z " fill="#451C21" transform="translate(87,47)"/>
<path d="M0 0 C2.97 0.495 2.97 0.495 6 1 C6.33 2.65 6.66 4.3 7 6 C7.66 6 8.32 6 9 6 C8.67 6.66 8.34 7.32 8 8 C7.77377919 9.70363822 7.59111527 11.41328701 7.4375 13.125 C7.35371094 14.03507812 7.26992188 14.94515625 7.18359375 15.8828125 C7.12300781 16.58148438 7.06242187 17.28015625 7 18 C6.34 18 5.68 18 5 18 C5 13.05 5 8.1 5 3 C3.68 2.67 2.36 2.34 1 2 C0.67 1.34 0.34 0.68 0 0 Z " fill="#542417" transform="translate(35,59)"/>
<path d="M0 0 C1.65 0.33 3.3 0.66 5 1 C5 1.99 5 2.98 5 4 C4.03320312 4.35191406 4.03320312 4.35191406 3.046875 4.7109375 C0.7922092 5.81161073 0.7922092 5.81161073 0.390625 8.1640625 C0.34421875 8.97617187 0.2978125 9.78828125 0.25 10.625 C0.19328125 11.44226562 0.1365625 12.25953125 0.078125 13.1015625 C0.05234375 13.72804688 0.0265625 14.35453125 0 15 C-0.66 15 -1.32 15 -2 15 C-2.21755666 9.5610835 -2.10428384 5.12919186 0 0 Z " fill="#3B1E23" transform="translate(60,9)"/>
<path d="M0 0 C2.69536452 1.99222595 3.00865961 3.04762785 3.625 6.4375 C3.74875 7.613125 3.8725 8.78875 4 10 C4.30903983 11.33917261 4.62942911 12.67653254 5 14 C1.87310723 11.91540482 1.17013226 11.4203866 0 8 C-0.15983268 5.30862396 -0.09003359 2.70100765 0 0 Z " fill="#401F1E" transform="translate(42,96)"/>
</svg>
